<svg width="21" height="21" viewBox="0 0 21 21" fill="none" xmlns="http://www.w3.org/2000/svg">
<path d="M18.9584 6.72C18.9584 6.36 18.8372 6.12 18.5646 5.85C16.7473 4.08 14.9603 2.31 13.2035 0.51C12.84 0.12 12.4766 0 11.9617 0C9.4174 0 6.87314 0 4.29859 0C2.81443 0 2.02692 0.81 2.02692 2.31C2.02692 5.04 2.02692 7.77 2.02692 10.5C2.02692 10.5 1.96635 15.9 2.02692 18.57C2.02692 20.28 2.78414 21 4.51061 21C8.47845 21 12.4463 20.97 16.4141 21C18.1709 21 18.9281 20.19 18.9584 18.54C19.0493 14.61 18.9584 10.65 18.9887 6.72H18.9584ZM14.6271 16.8H6.08563V14.7H14.6271V16.8ZM14.6271 12.6H6.08563V10.5H14.6271V12.6ZM11.8102 7.32C11.5982 7.32 11.5073 7.17 11.5073 6.99C11.5073 5.31 11.5073 3.66 11.5073 1.8C13.3852 3.72 15.1117 5.46 16.929 7.32C15.2026 7.32 13.4761 7.32 11.7799 7.32H11.8102Z" fill="white"/>
</svg>
