<svg width="21" height="21" viewBox="0 0 21 21" fill="none" xmlns="http://www.w3.org/2000/svg">
<path d="M17.7912 0.0299572C12.6172 0.0299572 7.44327 0.0299572 2.23903 0.0299572C0.816944 0.0299572 0 0.928674 0 2.45649C0 5.15264 0 7.84879 0 10.5449C0 13.271 0 16.0271 0 18.7532C0 20.0713 0.847201 21 2.08775 21C7.3525 21 12.587 21 17.8517 21C19.1225 21 20 20.1013 20 18.7832C20 13.271 20 7.75892 20 2.24679C20 0.898716 19.0923 0 17.8215 0L17.7912 0.0299572ZM16.944 18.6933C14.6142 18.6633 12.2844 18.6933 9.98487 18.6933C7.74584 18.6933 5.47655 18.6933 3.23752 18.6933C2.5416 18.6933 2.23903 18.5735 2.23903 17.7347C2.26929 12.9415 2.23903 8.1184 2.23903 3.32525C2.23903 2.66619 2.42057 2.39658 3.08623 2.39658C7.68533 2.39658 12.3147 2.39658 16.9138 2.39658C17.5189 2.39658 17.7912 2.57632 17.7912 3.29529C17.7912 8.14836 17.7912 12.9715 17.7912 17.8245C17.7912 18.5136 17.6097 18.7233 16.944 18.7233V18.6933Z" fill="white"/>
<path d="M10.026 17C8.35154 17 6.64715 17 4.97266 17C4.28492 17 4.10551 16.7867 4.0158 16.1733C3.8962 15.1333 4.46433 14.4667 5.42118 14.04C8.47115 12.6533 11.551 12.6533 14.601 14.04C14.9 14.1733 15.1691 14.36 15.4083 14.5733C16.0961 15.1333 16.0363 15.8267 15.9466 16.5467C15.9167 16.84 15.5578 17 15.1392 17C13.4348 17 11.7304 17 10.026 17Z" fill="white"/>
<path d="M9.99975 10.9995C8.34989 10.9995 7 9.64962 7 7.99975C7 6.31989 8.34989 5 10.0298 5C11.6796 5 13.0295 6.34989 12.9995 8.02975C12.9995 9.67962 11.6496 11.0295 9.96976 10.9995H9.99975Z" fill="white"/>
</svg>
