<svg width="21" height="21" viewBox="0 0 21 21" fill="none" xmlns="http://www.w3.org/2000/svg">
<path d="M10.9711 6.12135C10.9711 4.20265 10.9711 2.25398 10.9711 0.335285C10.9711 0.0654684 11.0312 -0.0244704 11.3015 0.00550924C13.4042 0.00550924 15.5068 0.00550924 17.6395 0.00550924C17.9099 0.00550924 18 0.0654684 18 0.335285C18 1.68437 18 3.03345 18 4.38253C18 4.65235 17.9099 4.68233 17.6996 4.68233C16.3479 4.68233 15.0262 4.68233 13.6745 4.68233C13.4042 4.68233 13.3141 4.74229 13.3141 5.04208C13.3141 8.69959 13.3141 12.3571 13.3141 16.0146C13.3141 17.0039 13.1338 17.9333 12.6232 18.7727C11.8722 19.9719 10.7909 20.6914 9.4091 20.9313C7.93723 21.1711 6.58552 20.7814 5.50415 19.792C4.57297 18.9526 4.03228 17.8434 4.00224 16.5542C3.9722 15.445 4.24255 14.4557 4.90338 13.5863C5.98476 12.2072 7.39655 11.5776 9.13876 11.7275C9.67944 11.7875 10.2201 11.9674 10.7007 12.2072C10.9711 12.3271 11.0011 12.3271 11.0011 12.0273C11.0011 10.0787 11.0011 8.12998 11.0011 6.18131L10.9711 6.12135Z" fill="white"/>
</svg>
