<svg width="21" height="21" viewBox="0 0 21 21" fill="none" xmlns="http://www.w3.org/2000/svg">
<path d="M18.9701 4.40188C18.9701 4.01029 18.9701 3.70906 18.5222 3.52833C16.0136 2.41381 13.4453 1.38965 10.9965 0.12451C10.668 -0.0562236 10.2798 -0.0261013 9.95125 0.12451C7.53228 1.23904 5.14317 2.38368 2.7242 3.43796C2.21651 3.67894 1.9776 3.95004 2.00747 4.52237C2.00747 6.35983 1.9776 8.19729 2.03733 10.0347C2.12692 11.7517 2.42556 13.4687 3.23188 15.0049C4.42644 17.3243 6.21827 19.1919 8.54765 20.3366C9.29425 20.698 10.1902 21.2101 11.0264 20.9089C14.6697 19.6136 17.029 17.0231 18.4027 13.4084C19.0896 11.571 18.9701 9.67328 19 7.77557C19 6.63093 19 5.5164 19 4.37175L18.9701 4.40188ZM10.5485 13.7699L8.7567 15.5773L6.96487 13.7699L4.90426 11.6915L6.69609 9.88414L8.7567 11.9626L15.2073 5.45616L16.9991 7.2635L10.5485 13.7699Z" fill="white"/>
</svg>
